<svg xmlns="http://www.w3.org/2000/svg" xmlns:xlink="http://www.w3.org/1999/xlink" viewBox="0 0 186 380"><defs><style>.cls-1,.cls-8{fill:none;}.cls-2{fill:#cabba5;}.cls-3{fill:#dbdfe3;}.cls-4{fill:#f8e5d4;}.cls-5{fill:#f8f8f8;}.cls-6{clip-path:url(#clip-path);}.cls-7{fill:#fff;}.cls-8{stroke:#dbdfe3;stroke-miterlimit:10;}.cls-9{fill:#323232;}.cls-10{fill:#151615;}.cls-11{fill:#292a29;}.cls-12{fill:#1f2142;}.cls-13{fill:#323456;}.cls-14{fill:url(#linear-gradient);}.cls-15{opacity:0.3;fill:url(#linear-gradient-2);}.cls-16{fill:#0b0b0b;}</style><clipPath id="clip-path"><rect class="cls-1" x="4.5" y="3.5" width="177" height="373" rx="27.76"/></clipPath><linearGradient id="linear-gradient" x1="86.91" y1="339.47" x2="99.36" y2="372.93" gradientUnits="userSpaceOnUse"><stop offset="0.03" stop-color="#46311b"/><stop offset="0.13" stop-color="#735945"/><stop offset="0.34" stop-color="#ffefdf"/><stop offset="0.58" stop-color="#ffefdf"/><stop offset="0.67" stop-color="#dac9b4"/><stop offset="0.76" stop-color="#bba991"/><stop offset="0.92" stop-color="#2a1604"/></linearGradient><linearGradient id="linear-gradient-2" x1="96.33" y1="341.23" x2="84.21" y2="383.19" gradientUnits="userSpaceOnUse"><stop offset="0" stop-color="#46311b"/><stop offset="0.09" stop-color="#735945"/><stop offset="0.26" stop-color="#ffefdf"/><stop offset="0.51" stop-color="#fbefe4"/><stop offset="0.56" stop-color="#ffefdf"/><stop offset="0.66" stop-color="#dac9b4"/><stop offset="0.76" stop-color="#bba991"/><stop offset="0.97" stop-color="#2a1604"/></linearGradient></defs><title>Artboard 1</title><g id="Layer_5" data-name="Layer 5"><rect class="cls-2" x="184" y="80" width="2" height="28"/><rect class="cls-3" x="184" y="82" width="2" height="24"/><rect class="cls-2" y="115" width="2" height="28" transform="translate(2 258) rotate(180)"/><rect class="cls-3" y="117" width="2" height="24" transform="translate(2 258) rotate(180)"/><rect class="cls-2" y="80" width="2" height="29" transform="translate(2 189) rotate(180)"/><rect class="cls-3" y="82.07" width="2" height="24.86" transform="translate(2 189) rotate(180)"/><rect class="cls-2" y="48" width="2" height="15" transform="translate(2 111) rotate(180)"/><rect class="cls-3" y="50" width="2" height="11" transform="translate(2 111) rotate(180)"/></g><g id="Layer_2" data-name="Layer 2"><rect class="cls-4" x="1.5" y="0.5" width="183" height="379" rx="27.76"/><rect class="cls-5" x="2" y="28" width="4" height="6"/><rect class="cls-5" x="180" y="28" width="4" height="6"/><rect class="cls-5" x="2" y="345" width="4" height="6"/><rect class="cls-5" x="180" y="345" width="4" height="6"/><path class="cls-2" d="M156.74,380H29.26A28.3,28.3,0,0,1,1,351.74V28.26A28.3,28.3,0,0,1,29.26,0H156.74A28.3,28.3,0,0,1,185,28.26V351.74A28.3,28.3,0,0,1,156.74,380ZM29.26,1A27.29,27.29,0,0,0,2,28.26V351.74A27.29,27.29,0,0,0,29.26,379H156.74A27.29,27.29,0,0,0,184,351.74V28.26A27.29,27.29,0,0,0,156.74,1Z"/><rect class="cls-5" x="4.5" y="3.5" width="177" height="373" rx="27.76"/><g class="cls-6"><path class="cls-7" d="M32.26,374.7a28.28,28.28,0,0,1-8.06-1.28A25.81,25.81,0,0,1,17,369.7a26.34,26.34,0,0,1-9.49-13.05,28.73,28.73,0,0,1-1.29-8.08l0-8.12L6,324.2l-.74-65q-.82-65-.4-130l.55-65,.29-32.49a29.9,29.9,0,0,1,1.19-8.24,28,28,0,0,1,3.69-7.47,25.84,25.84,0,0,1,5.81-5.95,25,25,0,0,1,7.34-3.88,26.81,26.81,0,0,1,8.18-1.4c2.73,0,5.42,0,8.13,0,5.42,0,10.83,0,16.25,0L88.76,4.8l16.25,0,16.24-.11,32.49-.23a28.56,28.56,0,0,1,8.35,1.27,26.59,26.59,0,0,1,7.55,3.82,25.84,25.84,0,0,1,6,6A28,28,0,0,1,179.58,23a29.63,29.63,0,0,1,1.35,8.41l.07,8.12.09,16.25.29,65c.14,43.32.31,86.64.25,130l-.08,32.49c0,10.83-.05,21.66-.15,32.49l-.23,32.49a29.92,29.92,0,0,1-1.25,8.48,28.31,28.31,0,0,1-3.85,7.67,26.68,26.68,0,0,1-6,6.07,25.77,25.77,0,0,1-7.56,3.91,27.48,27.48,0,0,1-8.38,1.36c-2.74,0-5.42-.06-8.13-.08l-16.25-.2-32.49-.36C75.58,374.81,53.92,374.74,32.26,374.7Zm0-.4c21.66,0,43.32-.11,65-.36l32.49-.36,16.25-.2c2.7,0,5.43,0,8.1-.11a24.92,24.92,0,0,0,7.56-1.42,23.47,23.47,0,0,0,6.71-3.68,24,24,0,0,0,5.24-5.55,24.28,24.28,0,0,0,4.24-14.41l-.23-32.49c-.1-10.83-.13-21.66-.15-32.49l-.08-32.49c-.06-43.32.11-86.64.25-130l.29-65L178,39.55l.07-8.12A27.29,27.29,0,0,0,177,23.85,25.09,25.09,0,0,0,173.56,17a23.56,23.56,0,0,0-5.37-5.5,24.47,24.47,0,0,0-6.82-3.59,26.66,26.66,0,0,0-7.63-1.3l-32.49-.23L105,6.25l-16.25,0L56.27,6.12c-5.42,0-10.83,0-16.25,0-2.7,0-5.42,0-8.11,0a25.53,25.53,0,0,0-7.75,1.38,24,24,0,0,0-6.93,3.72,24.37,24.37,0,0,0-5.44,5.66A26.24,26.24,0,0,0,8.36,24a26.86,26.86,0,0,0-1,7.79l.29,32.49.55,65q.38,65-.4,130L7,324.2l-.14,16.25,0,8.12A27.83,27.83,0,0,0,8,356.48a25.7,25.7,0,0,0,3.6,7.15,24.61,24.61,0,0,0,5.64,5.7A25.49,25.49,0,0,0,24.34,373,27.63,27.63,0,0,0,32.26,374.3Z"/></g><rect class="cls-8" x="4.5" y="3.5" width="177" height="373" rx="27.76"/><rect class="cls-9" x="79" y="22" width="28" height="3" rx="1.48"/><circle class="cls-10" cx="93" cy="11" r="2"/><ellipse class="cls-11" cx="93" cy="11.5" rx="1" ry="0.5"/><circle class="cls-10" cx="63.5" cy="23.5" r="2.5"/><path class="cls-12" d="M64,24c0-1.1-.45-2-1-2s-1,.9-1,2a2.55,2.55,0,0,0,.59,1.82,2.25,2.25,0,0,0,.58.15C63.64,25.81,64,25,64,24Z"/><ellipse class="cls-13" cx="62.5" cy="24" rx="0.5" ry="1"/><circle class="cls-13" cx="63.5" cy="22.5" r="0.5"/></g><g id="Layer_3" data-name="Layer 3"><circle class="cls-14" cx="92.5" cy="354.5" r="15"/><circle class="cls-15" cx="92.5" cy="354.5" r="15"/><circle class="cls-5" cx="92.5" cy="354.5" r="13"/></g><g id="Layer_4" data-name="Layer 4"><rect class="cls-16" x="11" y="45" width="164" height="289"/></g></svg>