  <svg>

    <!-- Лого -->
    <symbol id="main-logo" viewBox="0 0 146.3 40.37">
      <!-- Текст лого -->
      <g class="main-logo__text" style="display: var(--main-logo__text-display-value)">
        <path class="main-logo__body" d="M71.87,18.66a1.29,1.29,0,0,1,1.26-1.29h7.18c5.09,0,8.44,2.7,8.44,7.15v.06c0,4.86-4.06,7.37-8.85,7.37H74.42v6.83a1.27,1.27,0,1,1-2.54,0V18.66Zm8.11,11c3.73,0,6.18-2,6.18-5v-.06c0-3.22-2.41-4.89-6.05-4.89h-5.7v9.92H80Z" fill="var(--main-logo__body-color)"/>
        <path class="main-logo__body" d="M93.6,18.5a1.27,1.27,0,1,1,2.54,0V38.78a1.27,1.27,0,1,1-2.54,0Z" fill="var(--main-logo__body-color)"/>
        <path class="main-logo__body" d="M102.74,18.53A1.28,1.28,0,0,1,104,17.28h.35a1.56,1.56,0,0,1,1.29.74l13.68,17.45v-17a1.24,1.24,0,1,1,2.48,0V38.82A1.14,1.14,0,0,1,120.65,40h-.13a1.73,1.73,0,0,1-1.32-.77l-14-17.87V38.82a1.24,1.24,0,1,1-2.48,0V18.53Z" fill="var(--main-logo__body-color)"/>
        <path class="main-logo__body" d="M128.17,18.5a1.27,1.27,0,1,1,2.54,0V30.83l12.85-13.17a1.45,1.45,0,0,1,1-.45,1.27,1.27,0,0,1,1.22,1.26,1.25,1.25,0,0,1-.42.9l-8,7.92,8.56,10.56a1.41,1.41,0,0,1,.35.94A1.31,1.31,0,0,1,145,40.07a1.22,1.22,0,0,1-1-.58L135.58,29l-4.86,4.86v4.89a1.27,1.27,0,1,1-2.54,0V18.5Z" fill="var(--main-logo__body-color)"/>
      </g>
      <!-- Очки со звездами -->
      <g class="main-logo__glasses-decoraged" style="display: var(--main-logo__glasses-decoraged-display-value)">
        <!-- Очки с разрывами -->
        <path class="main-logo__body" d="M43.09,19.31c.25,0,.49,0,.73,0a2.49,2.49,0,0,0-2.14-1.22,2,2,0,0,1-1.88-1.35,12,12,0,0,0-2.09.82.7.7,0,0,0,.19,0,1.95,1.95,0,0,1,2,2.28A9,9,0,0,1,43.09,19.31Z" fill="var(--main-logo__body-color)"/>
        <path class="main-logo__body" d="M60.46,28,55.29,6.65C54.93,4.3,52.69,0,46.69,0a1.5,1.5,0,1,0,0,3c4.86,0,5.58,3.73,5.64,4.14l4.77,19.7H55a12,12,0,0,0-5.31-8.52,2.5,2.5,0,0,0-1.53,2.3,2,2,0,0,1,0,.26A9,9,0,1,1,35,24.36a2,2,0,0,1-1.85-2,.74.74,0,0,0-.19-.49,12,12,0,0,0-1.79,5H29.35a12,12,0,0,0-23.85,0H3.42L8.19,7.14C8.25,6.73,9,3,13.83,3a1.5,1.5,0,1,0,0-3c-6,0-8.24,4.3-8.6,6.65L.05,28a1.42,1.42,0,0,0,1.43,1.83h4a11.93,11.93,0,0,0,.39,1.83.73.73,0,0,0,.1-.35,2,2,0,0,1,2-2,2,2,0,0,1,.48.06,8.33,8.33,0,0,1-.07-1,9,9,0,1,1,9,9A9,9,0,0,1,12,35.58a2,2,0,0,1-1.3.49.75.75,0,0,0-.75.75,2,2,0,0,1-.18.81,12,12,0,0,0,19.54-7.79h1.81a12,12,0,0,0,23.85,0h4A1.42,1.42,0,0,0,60.46,28Z" fill="var(--main-logo__body-color)"/>
        <path class="main-logo__ornamentals" d="M50.69,16.12a4.5,4.5,0,0,1-4.5-4.5,4.5,4.5,0,0,1-4.5,4.5,4.5,4.5,0,0,1,4.5,4.5A4.5,4.5,0,0,1,50.69,16.12Z" fill="var(--main-logo__ornamentals-color)"/>
        <path class="main-logo__ornamentals" d="M37.9,19.63a2.75,2.75,0,0,1-2.75-2.75,2.75,2.75,0,0,1-2.75,2.75,2.75,2.75,0,0,1,2.75,2.75A2.75,2.75,0,0,1,37.9,19.63Z" fill="var(--main-logo__ornamentals-color)"/>
        <path class="main-logo__ornamentals" d="M10.73,34.07A2.75,2.75,0,0,1,8,31.32a2.75,2.75,0,0,1-2.75,2.75A2.75,2.75,0,0,1,8,36.82,2.75,2.75,0,0,1,10.73,34.07Z" fill="var(--main-logo__ornamentals-color)"/>
        <!-- Звезда над "i" -->
        <path class="main-logo__ornamentals" d="M98.5,9.87a3.62,3.62,0,0,1-3.62-3.62,3.62,3.62,0,0,1-3.62,3.62,3.62,3.62,0,0,1,3.62,3.62A3.62,3.62,0,0,1,98.5,9.87Z" fill="var(--main-logo__ornamentals-color)"/>
      </g>
      <!-- Очки цельные -->
      <g class="main-logo__glasses-plain" style="display: var(--main-logo__glasses-plain-display-value, none)">
        <path class="main-logo__body" d="M60.46,28,55.29,6.65C54.93,4.3,52.69,0,46.69,0a1.5,1.5,0,1,0,0,3c4.86,0,5.58,3.73,5.64,4.14l4.77,19.7H55a12,12,0,0,0-23.85,0H29.35a12,12,0,0,0-23.85,0H3.42L8.19,7.14C8.25,6.73,9,3,13.83,3a1.5,1.5,0,1,0,0-3c-6,0-8.24,4.3-8.6,6.65L.05,28a1.42,1.42,0,0,0,1.43,1.83h4a12,12,0,0,0,23.85,0h1.81a12,12,0,0,0,23.85,0h4A1.42,1.42,0,0,0,60.46,28ZM26.31,29.84a8.38,8.38,0,1,1,.14-1.5A9,9,0,0,1,26.31,29.84Zm25.68,0a8.41,8.41,0,1,1,.13-1.5A9,9,0,0,1,52,29.84Z" fill="var(--main-logo__body-color)"/>
      </g>
    </symbol>

    <!-- Таймер -->
    <symbol id="timer" viewBox="0 0 298 345.1" fill="#349">
        <!-- Тело таймера -->
        <path class="timer__body" d="M264.57,102.06l5.35-5.35C277.64,89,279,77.76,273,71.77s-17.22-4.59-24.93,3.13l-5.39,5.38A148.3,148.3,0,0,0,168,48.3V38.71h7.66c10.91,0,19.84-8.71,19.84-19.36S186.57,0,175.66,0H122.34C111.43,0,102.5,8.71,102.5,19.36s8.93,19.36,19.84,19.36H130V48.3a149,149,0,1,0,134.57,53.76ZM149,306.26A110.17,110.17,0,1,1,259.17,196.1,110.17,110.17,0,0,1,149,306.26Z" fill="var(--timer__body-color)"/>
        <!-- Внутренняя дуга -->
        <path class="timer__inner-line" d="M126.5,0A126.5,126.5,0,1,0,253,126.5,126.5,126.5,0,0,0,126.5,0Zm0,237.22A110.17,110.17,0,1,1,236.67,127,110.17,110.17,0,0,1,126.5,237.22Z" fill="var(--timer__inner-line-color)" transform="translate(22,70)"/>
    </symbol>

  </svg>