<svg xmlns="http://www.w3.org/2000/svg" viewBox="0 0 186 380"><defs><style>.cls-2{fill:#cabba5}.cls-3{fill:#dbdfe3}.cls-5{fill:#f8f8f8}.cls-10{fill:#151615}.cls-13{fill:#323456}</style><clipPath id="clip-path"><rect x="4.5" y="3.5" width="177" height="373" rx="27.76" fill="none"/></clipPath><linearGradient id="linear-gradient" x1="86.91" y1="339.47" x2="99.36" y2="372.93" gradientUnits="userSpaceOnUse"><stop offset=".03" stop-color="#46311b"/><stop offset=".13" stop-color="#735945"/><stop offset=".34" stop-color="#ffefdf"/><stop offset=".58" stop-color="#ffefdf"/><stop offset=".67" stop-color="#dac9b4"/><stop offset=".76" stop-color="#bba991"/><stop offset=".92" stop-color="#2a1604"/></linearGradient><linearGradient id="linear-gradient-2" x1="96.33" y1="341.23" x2="84.21" y2="383.19" gradientUnits="userSpaceOnUse"><stop offset="0" stop-color="#46311b"/><stop offset=".09" stop-color="#735945"/><stop offset=".26" stop-color="#ffefdf"/><stop offset=".51" stop-color="#fbefe4"/><stop offset=".56" stop-color="#ffefdf"/><stop offset=".66" stop-color="#dac9b4"/><stop offset=".76" stop-color="#bba991"/><stop offset=".97" stop-color="#2a1604"/></linearGradient></defs><g id="Layer_5" data-name="Layer 5"><path class="cls-2" d="M184 80h2v28h-2z"/><path class="cls-3" d="M184 82h2v24h-2z"/><path class="cls-2" transform="rotate(180 1 129)" d="M0 115h2v28H0z"/><path class="cls-3" transform="rotate(180 1 129)" d="M0 117h2v24H0z"/><path class="cls-2" transform="rotate(180 1 94.5)" d="M0 80h2v29H0z"/><path class="cls-3" transform="rotate(180 1 94.5)" d="M0 82.07h2v24.86H0z"/><path class="cls-2" transform="rotate(180 1 55.5)" d="M0 48h2v15H0z"/><path class="cls-3" transform="rotate(180 1 55.5)" d="M0 50h2v11H0z"/></g><g id="Layer_2" data-name="Layer 2"><rect x="1.5" y=".5" width="183" height="379" rx="27.76" fill="#f8e5d4"/><path class="cls-5" d="M2 28h4v6H2zm178 0h4v6h-4zM2 345h4v6H2zm178 0h4v6h-4z"/><path class="cls-2" d="M156.74 380H29.26A28.3 28.3 0 0 1 1 351.74V28.26A28.3 28.3 0 0 1 29.26 0h127.48A28.3 28.3 0 0 1 185 28.26v323.48A28.3 28.3 0 0 1 156.74 380zM29.26 1A27.29 27.29 0 0 0 2 28.26v323.48A27.29 27.29 0 0 0 29.26 379h127.48A27.29 27.29 0 0 0 184 351.74V28.26A27.29 27.29 0 0 0 156.74 1z"/><rect class="cls-5" x="4.5" y="3.5" width="177" height="373" rx="27.76"/><g clip-path="url(#clip-path)"><path d="M32.26 374.7a28.28 28.28 0 0 1-8.06-1.28 25.81 25.81 0 0 1-7.2-3.72 26.34 26.34 0 0 1-9.49-13.05 28.73 28.73 0 0 1-1.29-8.08v-8.12L6 324.2l-.74-65q-.82-65-.4-130l.55-65 .29-32.49a29.9 29.9 0 0 1 1.19-8.24A28 28 0 0 1 10.58 16a25.84 25.84 0 0 1 5.81-5.95 25 25 0 0 1 7.34-3.88 26.81 26.81 0 0 1 8.18-1.4h24.38l32.47.03h16.25l16.24-.11 32.49-.23a28.56 28.56 0 0 1 8.35 1.27 26.59 26.59 0 0 1 7.55 3.82 25.84 25.84 0 0 1 6 6 28 28 0 0 1 3.94 7.45 29.63 29.63 0 0 1 1.35 8.41l.07 8.12.09 16.25.29 65c.14 43.32.31 86.64.25 130l-.08 32.49c0 10.83-.05 21.66-.15 32.49l-.23 32.49a29.92 29.92 0 0 1-1.25 8.48 28.31 28.31 0 0 1-3.85 7.67 26.68 26.68 0 0 1-6 6.07 25.77 25.77 0 0 1-7.56 3.91 27.48 27.48 0 0 1-8.38 1.36c-2.74 0-5.42-.06-8.13-.08l-16.25-.2-32.49-.36c-21.68-.29-43.34-.36-65-.4zm0-.4c21.66 0 43.32-.11 65-.36l32.49-.36 16.25-.2c2.7 0 5.43 0 8.1-.11a24.92 24.92 0 0 0 7.56-1.42 23.47 23.47 0 0 0 6.71-3.68 24 24 0 0 0 5.24-5.55 24.28 24.28 0 0 0 4.24-14.41l-.23-32.49c-.1-10.83-.13-21.66-.15-32.49l-.08-32.49c-.06-43.32.11-86.64.25-130l.29-65 .07-16.19.07-8.12a27.29 27.29 0 0 0-1.07-7.58 25.09 25.09 0 0 0-3.44-6.85 23.56 23.56 0 0 0-5.37-5.5 24.47 24.47 0 0 0-6.82-3.59 26.66 26.66 0 0 0-7.63-1.3l-32.49-.23L105 6.25H88.75l-32.48-.13H31.91a25.53 25.53 0 0 0-7.75 1.38 24 24 0 0 0-6.93 3.72 24.37 24.37 0 0 0-5.44 5.66A26.24 26.24 0 0 0 8.36 24a26.86 26.86 0 0 0-1 7.79l.29 32.49.55 65q.38 65-.4 130L7 324.2l-.14 16.25v8.12A27.83 27.83 0 0 0 8 356.48a25.7 25.7 0 0 0 3.6 7.15 24.61 24.61 0 0 0 5.64 5.7 25.49 25.49 0 0 0 7.1 3.67 27.63 27.63 0 0 0 7.92 1.3z" fill="#fff"/></g><rect x="4.5" y="3.5" width="177" height="373" rx="27.76" stroke="#dbdfe3" stroke-miterlimit="10" fill="none"/><rect x="79" y="22" width="28" height="3" rx="1.48" fill="#323232"/><circle class="cls-10" cx="93" cy="11" r="2"/><ellipse cx="93" cy="11.5" rx="1" ry=".5" fill="#292a29"/><circle class="cls-10" cx="63.5" cy="23.5" r="2.5"/><path d="M64 24c0-1.1-.45-2-1-2s-1 .9-1 2a2.55 2.55 0 0 0 .59 1.82 2.25 2.25 0 0 0 .58.15c.47-.16.83-.97.83-1.97z" fill="#1f2142"/><ellipse class="cls-13" cx="62.5" cy="24" rx=".5" ry="1"/><circle class="cls-13" cx="63.5" cy="22.5" r=".5"/></g><g id="Layer_3" data-name="Layer 3"><circle cx="92.5" cy="354.5" r="15" fill="url(#linear-gradient)"/><circle cx="92.5" cy="354.5" r="15" opacity=".3" fill="url(#linear-gradient-2)"/><circle class="cls-5" cx="92.5" cy="354.5" r="13"/></g><path fill="#0b0b0b" d="M11 45h164v289H11z" id="Layer_4" data-name="Layer 4"/></svg>